<svg xmlns="http://www.w3.org/2000/svg" viewBox="0 0 64 64" role="img" aria-labelledby="title">
  <title id="title">LicitIA Labs</title>
  <rect width="64" height="64" rx="16" fill="#0f172a"/>
  <path d="M20 17h24a3 3 0 0 1 3 3v24a3 3 0 0 1-3 3H20a3 3 0 0 1-3-3V20a3 3 0 0 1 3-3Z" fill="none" stroke="#94a3b8" stroke-width="2"/>
  <path d="M26 25v14h7M23 13v5M32 13v5M41 13v5M23 46v5M32 46v5M41 46v5M13 23h5M13 32h5M13 41h5M46 23h5M46 32h5M46 41h5" fill="none" stroke="#cbd5e1" stroke-width="2" stroke-linecap="round"/>
  <path d="m29 33 5 5 12-14" fill="none" stroke="#10b981" stroke-width="5" stroke-linecap="round" stroke-linejoin="round"/>
</svg>
